<?xml version="1.0" encoding="UTF-8" standalone="no"?>
<!DOCTYPE svg PUBLIC "-//W3C//DTD SVG 1.1//EN"
 "http://www.w3.org/Graphics/SVG/1.1/DTD/svg11.dtd">
<!-- Generated by graphviz version 2.40.1 (20161225.0304)
 -->
<!-- Title: snakemake_dag Pages: 1 -->
<svg width="561pt" height="764pt"
 viewBox="0.00 0.00 561.00 764.00" xmlns="http://www.w3.org/2000/svg" xmlns:xlink="http://www.w3.org/1999/xlink">
<g id="graph0" class="graph" transform="scale(1 1) rotate(0) translate(4 760)">
<title>snakemake_dag</title>
<polygon fill="#ffffff" stroke="transparent" points="-4,4 -4,-760 557,-760 557,4 -4,4"/>
<!-- 0 -->
<g id="node1" class="node">
<title>0</title>
<path fill="none" stroke="#68d856" stroke-width="2" d="M287,-36C287,-36 257,-36 257,-36 251,-36 245,-30 245,-24 245,-24 245,-12 245,-12 245,-6 251,0 257,0 257,0 287,0 287,0 293,0 299,-6 299,-12 299,-12 299,-24 299,-24 299,-30 293,-36 287,-36"/>
<text text-anchor="middle" x="272" y="-15.5" font-family="sans" font-size="10.00" fill="#000000">all</text>
</g>
<!-- 1 -->
<g id="node2" class="node">
<title>1</title>
<path fill="none" stroke="#567bd8" stroke-width="2" d="M482,-396C482,-396 444,-396 444,-396 438,-396 432,-390 432,-384 432,-384 432,-372 432,-372 432,-366 438,-360 444,-360 444,-360 482,-360 482,-360 488,-360 494,-366 494,-372 494,-372 494,-384 494,-384 494,-390 488,-396 482,-396"/>
<text text-anchor="middle" x="463" y="-375.5" font-family="sans" font-size="10.00" fill="#000000">samtools</text>
</g>
<!-- 1&#45;&gt;0 -->
<g id="edge1" class="edge">
<title>1&#45;&gt;0</title>
<path fill="none" stroke="#c0c0c0" stroke-width="2" d="M461.3424,-359.8326C458.9991,-332.5392 455,-279.3198 455,-234 455,-234 455,-234 455,-162 455,-88.3192 362.2477,-46.564 308.8092,-28.6215"/>
<polygon fill="#c0c0c0" stroke="#c0c0c0" stroke-width="2" points="309.5942,-25.1968 299.0023,-25.4469 307.4383,-31.8566 309.5942,-25.1968"/>
</g>
<!-- 29 -->
<g id="node30" class="node">
<title>29</title>
<path fill="none" stroke="#8fd856" stroke-width="2" d="M363.5,-324C363.5,-324 312.5,-324 312.5,-324 306.5,-324 300.5,-318 300.5,-312 300.5,-312 300.5,-300 300.5,-300 300.5,-294 306.5,-288 312.5,-288 312.5,-288 363.5,-288 363.5,-288 369.5,-288 375.5,-294 375.5,-300 375.5,-300 375.5,-312 375.5,-312 375.5,-318 369.5,-324 363.5,-324"/>
<text text-anchor="middle" x="338" y="-309" font-family="sans" font-size="10.00" fill="#000000">macs2</text>
<text text-anchor="middle" x="338" y="-298" font-family="sans" font-size="10.00" fill="#000000">id: ANT1_S3</text>
</g>
<!-- 1&#45;&gt;29 -->
<g id="edge37" class="edge">
<title>1&#45;&gt;29</title>
<path fill="none" stroke="#c0c0c0" stroke-width="2" d="M431.7797,-360.0171C415.5229,-350.6532 395.4619,-339.098 378.0717,-329.0813"/>
<polygon fill="#c0c0c0" stroke="#c0c0c0" stroke-width="2" points="379.6678,-325.9616 369.2556,-324.0032 376.1739,-332.0273 379.6678,-325.9616"/>
</g>
<!-- 2 -->
<g id="node3" class="node">
<title>2</title>
<path fill="none" stroke="#567bd8" stroke-width="2" d="M139,-396C139,-396 101,-396 101,-396 95,-396 89,-390 89,-384 89,-384 89,-372 89,-372 89,-366 95,-360 101,-360 101,-360 139,-360 139,-360 145,-360 151,-366 151,-372 151,-372 151,-384 151,-384 151,-390 145,-396 139,-396"/>
<text text-anchor="middle" x="120" y="-375.5" font-family="sans" font-size="10.00" fill="#000000">samtools</text>
</g>
<!-- 2&#45;&gt;0 -->
<g id="edge2" class="edge">
<title>2&#45;&gt;0</title>
<path fill="none" stroke="#c0c0c0" stroke-width="2" d="M111.9412,-359.7668C100.7866,-332.8248 82,-280.5405 82,-234 82,-234 82,-234 82,-162 82,-118.7517 87.6526,-101.7954 119,-72 150.8251,-41.7506 200.6181,-28.318 234.6993,-22.4379"/>
<polygon fill="#c0c0c0" stroke="#c0c0c0" stroke-width="2" points="235.4067,-25.8695 244.7345,-20.8452 234.3094,-18.956 235.4067,-25.8695"/>
</g>
<!-- 30 -->
<g id="node31" class="node">
<title>30</title>
<path fill="none" stroke="#8fd856" stroke-width="2" d="M173.5,-324C173.5,-324 122.5,-324 122.5,-324 116.5,-324 110.5,-318 110.5,-312 110.5,-312 110.5,-300 110.5,-300 110.5,-294 116.5,-288 122.5,-288 122.5,-288 173.5,-288 173.5,-288 179.5,-288 185.5,-294 185.5,-300 185.5,-300 185.5,-312 185.5,-312 185.5,-318 179.5,-324 173.5,-324"/>
<text text-anchor="middle" x="148" y="-309" font-family="sans" font-size="10.00" fill="#000000">macs2</text>
<text text-anchor="middle" x="148" y="-298" font-family="sans" font-size="10.00" fill="#000000">id: BOY6_S9</text>
</g>
<!-- 2&#45;&gt;30 -->
<g id="edge39" class="edge">
<title>2&#45;&gt;30</title>
<path fill="none" stroke="#c0c0c0" stroke-width="2" d="M127.0656,-359.8314C130.126,-351.9617 133.7779,-342.5712 137.1682,-333.8533"/>
<polygon fill="#c0c0c0" stroke="#c0c0c0" stroke-width="2" points="140.4768,-335.0019 140.8393,-324.4133 133.9527,-332.4647 140.4768,-335.0019"/>
</g>
<!-- 3 -->
<g id="node4" class="node">
<title>3</title>
<path fill="none" stroke="#567bd8" stroke-width="2" d="M296,-396C296,-396 258,-396 258,-396 252,-396 246,-390 246,-384 246,-384 246,-372 246,-372 246,-366 252,-360 258,-360 258,-360 296,-360 296,-360 302,-360 308,-366 308,-372 308,-372 308,-384 308,-384 308,-390 302,-396 296,-396"/>
<text text-anchor="middle" x="277" y="-375.5" font-family="sans" font-size="10.00" fill="#000000">samtools</text>
</g>
<!-- 3&#45;&gt;0 -->
<g id="edge3" class="edge">
<title>3&#45;&gt;0</title>
<path fill="none" stroke="#c0c0c0" stroke-width="2" d="M275.964,-359.8216C274.4995,-332.5143 272,-279.2773 272,-234 272,-234 272,-234 272,-162 272,-121.876 272,-75.4631 272,-46.4177"/>
<polygon fill="#c0c0c0" stroke="#c0c0c0" stroke-width="2" points="275.5001,-46.1853 272,-36.1854 268.5001,-46.1854 275.5001,-46.1853"/>
</g>
<!-- 3&#45;&gt;29 -->
<g id="edge38" class="edge">
<title>3&#45;&gt;29</title>
<path fill="none" stroke="#c0c0c0" stroke-width="2" d="M292.3929,-359.8314C299.4904,-351.454 308.048,-341.3531 315.824,-332.1749"/>
<polygon fill="#c0c0c0" stroke="#c0c0c0" stroke-width="2" points="318.6061,-334.3056 322.3999,-324.4133 313.2652,-329.7807 318.6061,-334.3056"/>
</g>
<!-- 3&#45;&gt;30 -->
<g id="edge40" class="edge">
<title>3&#45;&gt;30</title>
<path fill="none" stroke="#c0c0c0" stroke-width="2" d="M245.7727,-360.5708C228.7273,-351.0571 207.4128,-339.1606 189.0389,-328.9055"/>
<polygon fill="#c0c0c0" stroke="#c0c0c0" stroke-width="2" points="190.7247,-325.8381 180.2869,-324.0206 187.3131,-331.9505 190.7247,-325.8381"/>
</g>
<!-- 4 -->
<g id="node5" class="node">
<title>4</title>
<path fill="none" stroke="#d85656" stroke-width="2" d="M415,-180C415,-180 385,-180 385,-180 379,-180 373,-174 373,-168 373,-168 373,-156 373,-156 373,-150 379,-144 385,-144 385,-144 415,-144 415,-144 421,-144 427,-150 427,-156 427,-156 427,-168 427,-168 427,-174 421,-180 415,-180"/>
<text text-anchor="middle" x="400" y="-159.5" font-family="sans" font-size="10.00" fill="#000000">qctrim</text>
</g>
<!-- 4&#45;&gt;0 -->
<g id="edge4" class="edge">
<title>4&#45;&gt;0</title>
<path fill="none" stroke="#c0c0c0" stroke-width="2" d="M396.4505,-143.9489C391.8268,-124.3551 382.1052,-93.0528 364,-72 349.0207,-54.582 326.9577,-41.3653 308.1926,-32.3679"/>
<polygon fill="#c0c0c0" stroke="#c0c0c0" stroke-width="2" points="309.5636,-29.1463 299.014,-28.169 306.6516,-35.5119 309.5636,-29.1463"/>
</g>
<!-- 5 -->
<g id="node6" class="node">
<title>5</title>
<path fill="none" stroke="#d85656" stroke-width="2" d="M42,-324C42,-324 12,-324 12,-324 6,-324 0,-318 0,-312 0,-312 0,-300 0,-300 0,-294 6,-288 12,-288 12,-288 42,-288 42,-288 48,-288 54,-294 54,-300 54,-300 54,-312 54,-312 54,-318 48,-324 42,-324"/>
<text text-anchor="middle" x="27" y="-303.5" font-family="sans" font-size="10.00" fill="#000000">qctrim</text>
</g>
<!-- 5&#45;&gt;0 -->
<g id="edge5" class="edge">
<title>5&#45;&gt;0</title>
<path fill="none" stroke="#c0c0c0" stroke-width="2" d="M24.2633,-287.9942C18.7734,-244.6757 11.376,-133.6735 68,-72 90.3579,-47.6483 182.5736,-30.7944 235.0427,-22.9689"/>
<polygon fill="#c0c0c0" stroke="#c0c0c0" stroke-width="2" points="235.5819,-26.4274 244.974,-21.5246 234.5744,-19.5003 235.5819,-26.4274"/>
</g>
<!-- 6 -->
<g id="node7" class="node">
<title>6</title>
<path fill="none" stroke="#d85656" stroke-width="2" d="M232,-252C232,-252 202,-252 202,-252 196,-252 190,-246 190,-240 190,-240 190,-228 190,-228 190,-222 196,-216 202,-216 202,-216 232,-216 232,-216 238,-216 244,-222 244,-228 244,-228 244,-240 244,-240 244,-246 238,-252 232,-252"/>
<text text-anchor="middle" x="217" y="-231.5" font-family="sans" font-size="10.00" fill="#000000">qctrim</text>
</g>
<!-- 6&#45;&gt;0 -->
<g id="edge6" class="edge">
<title>6&#45;&gt;0</title>
<path fill="none" stroke="#c0c0c0" stroke-width="2" d="M221.6383,-215.5268C229.2006,-185.4414 244.681,-123.9929 258,-72 260.1293,-63.6881 262.4615,-54.662 264.6012,-46.4114"/>
<polygon fill="#c0c0c0" stroke="#c0c0c0" stroke-width="2" points="268.0523,-47.0463 267.1787,-36.4875 261.2771,-45.2865 268.0523,-47.0463"/>
</g>
<!-- 7 -->
<g id="node8" class="node">
<title>7</title>
<path fill="none" stroke="#56d892" stroke-width="2" d="M541,-108C541,-108 495,-108 495,-108 489,-108 483,-102 483,-96 483,-96 483,-84 483,-84 483,-78 489,-72 495,-72 495,-72 541,-72 541,-72 547,-72 553,-78 553,-84 553,-84 553,-96 553,-96 553,-102 547,-108 541,-108"/>
<text text-anchor="middle" x="518" y="-87.5" font-family="sans" font-size="10.00" fill="#000000">copyconfig</text>
</g>
<!-- 7&#45;&gt;0 -->
<g id="edge7" class="edge">
<title>7&#45;&gt;0</title>
<path fill="none" stroke="#c0c0c0" stroke-width="2" d="M482.7942,-76.6633C478.175,-75.0324 473.4883,-73.4367 469,-72 413.8503,-54.3467 348.907,-37.2441 309.1004,-27.1717"/>
<polygon fill="#c0c0c0" stroke="#c0c0c0" stroke-width="2" points="309.8513,-23.7516 299.2995,-24.7054 308.1431,-30.54 309.8513,-23.7516"/>
</g>
<!-- 8 -->
<g id="node9" class="node">
<title>8</title>
<path fill="none" stroke="#b6d856" stroke-width="2" d="M343.5,-108C343.5,-108 312.5,-108 312.5,-108 306.5,-108 300.5,-102 300.5,-96 300.5,-96 300.5,-84 300.5,-84 300.5,-78 306.5,-72 312.5,-72 312.5,-72 343.5,-72 343.5,-72 349.5,-72 355.5,-78 355.5,-84 355.5,-84 355.5,-96 355.5,-96 355.5,-102 349.5,-108 343.5,-108"/>
<text text-anchor="middle" x="328" y="-87.5" font-family="sans" font-size="10.00" fill="#000000">igvtotdf</text>
</g>
<!-- 8&#45;&gt;0 -->
<g id="edge8" class="edge">
<title>8&#45;&gt;0</title>
<path fill="none" stroke="#c0c0c0" stroke-width="2" d="M313.8688,-71.8314C307.4189,-63.5386 299.6555,-53.557 292.5748,-44.4533"/>
<polygon fill="#c0c0c0" stroke="#c0c0c0" stroke-width="2" points="295.2236,-42.158 286.3214,-36.4133 289.6981,-46.4556 295.2236,-42.158"/>
</g>
<!-- 9 -->
<g id="node10" class="node">
<title>9</title>
<path fill="none" stroke="#b6d856" stroke-width="2" d="M171.5,-108C171.5,-108 140.5,-108 140.5,-108 134.5,-108 128.5,-102 128.5,-96 128.5,-96 128.5,-84 128.5,-84 128.5,-78 134.5,-72 140.5,-72 140.5,-72 171.5,-72 171.5,-72 177.5,-72 183.5,-78 183.5,-84 183.5,-84 183.5,-96 183.5,-96 183.5,-102 177.5,-108 171.5,-108"/>
<text text-anchor="middle" x="156" y="-87.5" font-family="sans" font-size="10.00" fill="#000000">igvtotdf</text>
</g>
<!-- 9&#45;&gt;0 -->
<g id="edge9" class="edge">
<title>9&#45;&gt;0</title>
<path fill="none" stroke="#c0c0c0" stroke-width="2" d="M183.7849,-72.7542C199.5382,-62.9763 219.4175,-50.6374 236.3151,-40.1492"/>
<polygon fill="#c0c0c0" stroke="#c0c0c0" stroke-width="2" points="238.1914,-43.1041 244.8421,-34.8566 234.4999,-37.1566 238.1914,-43.1041"/>
</g>
<!-- 10 -->
<g id="node11" class="node">
<title>10</title>
<path fill="none" stroke="#d8cb56" stroke-width="2" d="M494,-468C494,-468 444,-468 444,-468 438,-468 432,-462 432,-456 432,-456 432,-444 432,-444 432,-438 438,-432 444,-432 444,-432 494,-432 494,-432 500,-432 506,-438 506,-444 506,-444 506,-456 506,-456 506,-462 500,-468 494,-468"/>
<text text-anchor="middle" x="469" y="-447.5" font-family="sans" font-size="10.00" fill="#000000">bwa_samse</text>
</g>
<!-- 10&#45;&gt;1 -->
<g id="edge10" class="edge">
<title>10&#45;&gt;1</title>
<path fill="none" stroke="#c0c0c0" stroke-width="2" d="M467.4859,-431.8314C466.8442,-424.131 466.0812,-414.9743 465.3681,-406.4166"/>
<polygon fill="#c0c0c0" stroke="#c0c0c0" stroke-width="2" points="468.8529,-406.088 464.5344,-396.4133 461.8771,-406.6694 468.8529,-406.088"/>
</g>
<!-- 11 -->
<g id="node12" class="node">
<title>11</title>
<path fill="none" stroke="#d8cb56" stroke-width="2" d="M145,-468C145,-468 95,-468 95,-468 89,-468 83,-462 83,-456 83,-456 83,-444 83,-444 83,-438 89,-432 95,-432 95,-432 145,-432 145,-432 151,-432 157,-438 157,-444 157,-444 157,-456 157,-456 157,-462 151,-468 145,-468"/>
<text text-anchor="middle" x="120" y="-447.5" font-family="sans" font-size="10.00" fill="#000000">bwa_samse</text>
</g>
<!-- 11&#45;&gt;2 -->
<g id="edge11" class="edge">
<title>11&#45;&gt;2</title>
<path fill="none" stroke="#c0c0c0" stroke-width="2" d="M120,-431.8314C120,-424.131 120,-414.9743 120,-406.4166"/>
<polygon fill="#c0c0c0" stroke="#c0c0c0" stroke-width="2" points="123.5001,-406.4132 120,-396.4133 116.5001,-406.4133 123.5001,-406.4132"/>
</g>
<!-- 12 -->
<g id="node13" class="node">
<title>12</title>
<path fill="none" stroke="#d8cb56" stroke-width="2" d="M305,-468C305,-468 255,-468 255,-468 249,-468 243,-462 243,-456 243,-456 243,-444 243,-444 243,-438 249,-432 255,-432 255,-432 305,-432 305,-432 311,-432 317,-438 317,-444 317,-444 317,-456 317,-456 317,-462 311,-468 305,-468"/>
<text text-anchor="middle" x="280" y="-447.5" font-family="sans" font-size="10.00" fill="#000000">bwa_samse</text>
</g>
<!-- 12&#45;&gt;3 -->
<g id="edge12" class="edge">
<title>12&#45;&gt;3</title>
<path fill="none" stroke="#c0c0c0" stroke-width="2" d="M279.243,-431.8314C278.9221,-424.131 278.5406,-414.9743 278.184,-406.4166"/>
<polygon fill="#c0c0c0" stroke="#c0c0c0" stroke-width="2" points="281.6806,-406.2589 277.7672,-396.4133 274.6867,-406.5503 281.6806,-406.2589"/>
</g>
<!-- 13 -->
<g id="node14" class="node">
<title>13</title>
<path fill="none" stroke="#56a9d8" stroke-width="2" d="M452,-684C452,-684 422,-684 422,-684 416,-684 410,-678 410,-672 410,-672 410,-660 410,-660 410,-654 416,-648 422,-648 422,-648 452,-648 452,-648 458,-648 464,-654 464,-660 464,-660 464,-672 464,-672 464,-678 458,-684 452,-684"/>
<text text-anchor="middle" x="437" y="-663.5" font-family="sans" font-size="10.00" fill="#000000">trim</text>
</g>
<!-- 13&#45;&gt;4 -->
<g id="edge13" class="edge">
<title>13&#45;&gt;4</title>
<path fill="none" stroke="#c0c0c0" stroke-width="2" d="M430.0015,-647.6679C420.3147,-620.6028 404,-568.1665 404,-522 404,-522 404,-522 404,-306 404,-265.8605 402.4278,-219.4516 401.2547,-190.4112"/>
<polygon fill="#c0c0c0" stroke="#c0c0c0" stroke-width="2" points="404.7419,-190.0266 400.8288,-180.1809 397.7479,-190.3179 404.7419,-190.0266"/>
</g>
<!-- 19 -->
<g id="node20" class="node">
<title>19</title>
<path fill="none" stroke="#d8a456" stroke-width="2" d="M496,-612C496,-612 444,-612 444,-612 438,-612 432,-606 432,-600 432,-600 432,-588 432,-588 432,-582 438,-576 444,-576 444,-576 496,-576 496,-576 502,-576 508,-582 508,-588 508,-588 508,-600 508,-600 508,-606 502,-612 496,-612"/>
<text text-anchor="middle" x="470" y="-591.5" font-family="sans" font-size="10.00" fill="#000000">decompress</text>
</g>
<!-- 13&#45;&gt;19 -->
<g id="edge30" class="edge">
<title>13&#45;&gt;19</title>
<path fill="none" stroke="#c0c0c0" stroke-width="2" d="M445.3273,-647.8314C448.973,-639.8771 453.3309,-630.369 457.3627,-621.5723"/>
<polygon fill="#c0c0c0" stroke="#c0c0c0" stroke-width="2" points="460.5757,-622.9622 461.5606,-612.4133 454.2123,-620.0456 460.5757,-622.9622"/>
</g>
<!-- 14 -->
<g id="node15" class="node">
<title>14</title>
<path fill="none" stroke="#56a9d8" stroke-width="2" d="M75,-684C75,-684 45,-684 45,-684 39,-684 33,-678 33,-672 33,-672 33,-660 33,-660 33,-654 39,-648 45,-648 45,-648 75,-648 75,-648 81,-648 87,-654 87,-660 87,-660 87,-672 87,-672 87,-678 81,-684 75,-684"/>
<text text-anchor="middle" x="60" y="-663.5" font-family="sans" font-size="10.00" fill="#000000">trim</text>
</g>
<!-- 14&#45;&gt;5 -->
<g id="edge14" class="edge">
<title>14&#45;&gt;5</title>
<path fill="none" stroke="#c0c0c0" stroke-width="2" d="M53.0015,-647.6679C43.3147,-620.6028 27,-568.1665 27,-522 27,-522 27,-522 27,-450 27,-409.876 27,-363.4631 27,-334.4177"/>
<polygon fill="#c0c0c0" stroke="#c0c0c0" stroke-width="2" points="30.5001,-334.1853 27,-324.1854 23.5001,-334.1854 30.5001,-334.1853"/>
</g>
<!-- 21 -->
<g id="node22" class="node">
<title>21</title>
<path fill="none" stroke="#d8a456" stroke-width="2" d="M119,-612C119,-612 67,-612 67,-612 61,-612 55,-606 55,-600 55,-600 55,-588 55,-588 55,-582 61,-576 67,-576 67,-576 119,-576 119,-576 125,-576 131,-582 131,-588 131,-588 131,-600 131,-600 131,-606 125,-612 119,-612"/>
<text text-anchor="middle" x="93" y="-591.5" font-family="sans" font-size="10.00" fill="#000000">decompress</text>
</g>
<!-- 14&#45;&gt;21 -->
<g id="edge32" class="edge">
<title>14&#45;&gt;21</title>
<path fill="none" stroke="#c0c0c0" stroke-width="2" d="M68.3273,-647.8314C71.973,-639.8771 76.3309,-630.369 80.3627,-621.5723"/>
<polygon fill="#c0c0c0" stroke="#c0c0c0" stroke-width="2" points="83.5757,-622.9622 84.5606,-612.4133 77.2123,-620.0456 83.5757,-622.9622"/>
</g>
<!-- 15 -->
<g id="node16" class="node">
<title>15</title>
<path fill="none" stroke="#56a9d8" stroke-width="2" d="M263,-684C263,-684 233,-684 233,-684 227,-684 221,-678 221,-672 221,-672 221,-660 221,-660 221,-654 227,-648 233,-648 233,-648 263,-648 263,-648 269,-648 275,-654 275,-660 275,-660 275,-672 275,-672 275,-678 269,-684 263,-684"/>
<text text-anchor="middle" x="248" y="-663.5" font-family="sans" font-size="10.00" fill="#000000">trim</text>
</g>
<!-- 15&#45;&gt;6 -->
<g id="edge15" class="edge">
<title>15&#45;&gt;6</title>
<path fill="none" stroke="#c0c0c0" stroke-width="2" d="M241.0015,-647.6679C231.3147,-620.6028 215,-568.1665 215,-522 215,-522 215,-522 215,-378 215,-337.8721 215.7861,-291.4602 216.3726,-262.416"/>
<polygon fill="#c0c0c0" stroke="#c0c0c0" stroke-width="2" points="219.8766,-262.255 216.5856,-252.1843 212.8782,-262.1092 219.8766,-262.255"/>
</g>
<!-- 23 -->
<g id="node24" class="node">
<title>23</title>
<path fill="none" stroke="#d8a456" stroke-width="2" d="M307,-612C307,-612 255,-612 255,-612 249,-612 243,-606 243,-600 243,-600 243,-588 243,-588 243,-582 249,-576 255,-576 255,-576 307,-576 307,-576 313,-576 319,-582 319,-588 319,-588 319,-600 319,-600 319,-606 313,-612 307,-612"/>
<text text-anchor="middle" x="281" y="-591.5" font-family="sans" font-size="10.00" fill="#000000">decompress</text>
</g>
<!-- 15&#45;&gt;23 -->
<g id="edge34" class="edge">
<title>15&#45;&gt;23</title>
<path fill="none" stroke="#c0c0c0" stroke-width="2" d="M256.3273,-647.8314C259.973,-639.8771 264.3309,-630.369 268.3627,-621.5723"/>
<polygon fill="#c0c0c0" stroke="#c0c0c0" stroke-width="2" points="271.5757,-622.9622 272.5606,-612.4133 265.2123,-620.0456 271.5757,-622.9622"/>
</g>
<!-- 16 -->
<g id="node17" class="node">
<title>16</title>
<path fill="none" stroke="#d87d56" stroke-width="2" d="M343,-180C343,-180 313,-180 313,-180 307,-180 301,-174 301,-168 301,-168 301,-156 301,-156 301,-150 307,-144 313,-144 313,-144 343,-144 343,-144 349,-144 355,-150 355,-156 355,-156 355,-168 355,-168 355,-174 349,-180 343,-180"/>
<text text-anchor="middle" x="328" y="-159.5" font-family="sans" font-size="10.00" fill="#000000">igvsort</text>
</g>
<!-- 16&#45;&gt;8 -->
<g id="edge16" class="edge">
<title>16&#45;&gt;8</title>
<path fill="none" stroke="#c0c0c0" stroke-width="2" d="M328,-143.8314C328,-136.131 328,-126.9743 328,-118.4166"/>
<polygon fill="#c0c0c0" stroke="#c0c0c0" stroke-width="2" points="331.5001,-118.4132 328,-108.4133 324.5001,-118.4133 331.5001,-118.4132"/>
</g>
<!-- 17 -->
<g id="node18" class="node">
<title>17</title>
<path fill="none" stroke="#d87d56" stroke-width="2" d="M163,-180C163,-180 133,-180 133,-180 127,-180 121,-174 121,-168 121,-168 121,-156 121,-156 121,-150 127,-144 133,-144 133,-144 163,-144 163,-144 169,-144 175,-150 175,-156 175,-156 175,-168 175,-168 175,-174 169,-180 163,-180"/>
<text text-anchor="middle" x="148" y="-159.5" font-family="sans" font-size="10.00" fill="#000000">igvsort</text>
</g>
<!-- 17&#45;&gt;9 -->
<g id="edge17" class="edge">
<title>17&#45;&gt;9</title>
<path fill="none" stroke="#c0c0c0" stroke-width="2" d="M150.0187,-143.8314C150.8743,-136.131 151.8917,-126.9743 152.8426,-118.4166"/>
<polygon fill="#c0c0c0" stroke="#c0c0c0" stroke-width="2" points="156.3283,-118.7386 153.9541,-108.4133 149.3711,-117.9656 156.3283,-118.7386"/>
</g>
<!-- 18 -->
<g id="node19" class="node">
<title>18</title>
<path fill="none" stroke="#56d8b9" stroke-width="2" d="M536,-540C536,-540 496,-540 496,-540 490,-540 484,-534 484,-528 484,-528 484,-516 484,-516 484,-510 490,-504 496,-504 496,-504 536,-504 536,-504 542,-504 548,-510 548,-516 548,-516 548,-528 548,-528 548,-534 542,-540 536,-540"/>
<text text-anchor="middle" x="516" y="-519.5" font-family="sans" font-size="10.00" fill="#000000">bwa_map</text>
</g>
<!-- 18&#45;&gt;10 -->
<g id="edge18" class="edge">
<title>18&#45;&gt;10</title>
<path fill="none" stroke="#c0c0c0" stroke-width="2" d="M504.1399,-503.8314C498.8371,-495.7079 492.4763,-485.9637 486.6327,-477.0118"/>
<polygon fill="#c0c0c0" stroke="#c0c0c0" stroke-width="2" points="489.4169,-474.8739 481.0198,-468.4133 483.5552,-478.7003 489.4169,-474.8739"/>
</g>
<!-- 19&#45;&gt;10 -->
<g id="edge19" class="edge">
<title>19&#45;&gt;10</title>
<path fill="none" stroke="#c0c0c0" stroke-width="2" d="M469.8733,-575.7623C469.7028,-551.201 469.3976,-507.2474 469.1969,-478.3541"/>
<polygon fill="#c0c0c0" stroke="#c0c0c0" stroke-width="2" points="472.6951,-478.065 469.1256,-468.0896 465.6952,-478.1137 472.6951,-478.065"/>
</g>
<!-- 19&#45;&gt;18 -->
<g id="edge29" class="edge">
<title>19&#45;&gt;18</title>
<path fill="none" stroke="#c0c0c0" stroke-width="2" d="M481.6077,-575.8314C486.7978,-567.7079 493.0232,-557.9637 498.7425,-549.0118"/>
<polygon fill="#c0c0c0" stroke="#c0c0c0" stroke-width="2" points="501.8015,-550.7246 504.236,-540.4133 495.9026,-546.9559 501.8015,-550.7246"/>
</g>
<!-- 20 -->
<g id="node21" class="node">
<title>20</title>
<path fill="none" stroke="#56d8b9" stroke-width="2" d="M171,-540C171,-540 131,-540 131,-540 125,-540 119,-534 119,-528 119,-528 119,-516 119,-516 119,-510 125,-504 131,-504 131,-504 171,-504 171,-504 177,-504 183,-510 183,-516 183,-516 183,-528 183,-528 183,-534 177,-540 171,-540"/>
<text text-anchor="middle" x="151" y="-519.5" font-family="sans" font-size="10.00" fill="#000000">bwa_map</text>
</g>
<!-- 20&#45;&gt;11 -->
<g id="edge20" class="edge">
<title>20&#45;&gt;11</title>
<path fill="none" stroke="#c0c0c0" stroke-width="2" d="M143.1774,-503.8314C139.7891,-495.9617 135.7459,-486.5712 131.9924,-477.8533"/>
<polygon fill="#c0c0c0" stroke="#c0c0c0" stroke-width="2" points="135.0973,-476.214 127.9279,-468.4133 128.6679,-478.9822 135.0973,-476.214"/>
</g>
<!-- 21&#45;&gt;11 -->
<g id="edge21" class="edge">
<title>21&#45;&gt;11</title>
<path fill="none" stroke="#c0c0c0" stroke-width="2" d="M96.4196,-575.7623C101.0451,-551.0928 109.3388,-506.8598 114.755,-477.9731"/>
<polygon fill="#c0c0c0" stroke="#c0c0c0" stroke-width="2" points="118.2053,-478.5634 116.6082,-468.0896 111.3252,-477.2733 118.2053,-478.5634"/>
</g>
<!-- 21&#45;&gt;20 -->
<g id="edge31" class="edge">
<title>21&#45;&gt;20</title>
<path fill="none" stroke="#c0c0c0" stroke-width="2" d="M107.6358,-575.8314C114.3161,-567.5386 122.3568,-557.557 129.6904,-548.4533"/>
<polygon fill="#c0c0c0" stroke="#c0c0c0" stroke-width="2" points="132.6194,-550.3965 136.1671,-540.4133 127.1681,-546.0052 132.6194,-550.3965"/>
</g>
<!-- 22 -->
<g id="node23" class="node">
<title>22</title>
<path fill="none" stroke="#56d8b9" stroke-width="2" d="M347,-540C347,-540 307,-540 307,-540 301,-540 295,-534 295,-528 295,-528 295,-516 295,-516 295,-510 301,-504 307,-504 307,-504 347,-504 347,-504 353,-504 359,-510 359,-516 359,-516 359,-528 359,-528 359,-534 353,-540 347,-540"/>
<text text-anchor="middle" x="327" y="-519.5" font-family="sans" font-size="10.00" fill="#000000">bwa_map</text>
</g>
<!-- 22&#45;&gt;12 -->
<g id="edge22" class="edge">
<title>22&#45;&gt;12</title>
<path fill="none" stroke="#c0c0c0" stroke-width="2" d="M315.1399,-503.8314C309.8371,-495.7079 303.4763,-485.9637 297.6327,-477.0118"/>
<polygon fill="#c0c0c0" stroke="#c0c0c0" stroke-width="2" points="300.4169,-474.8739 292.0198,-468.4133 294.5552,-478.7003 300.4169,-474.8739"/>
</g>
<!-- 23&#45;&gt;12 -->
<g id="edge23" class="edge">
<title>23&#45;&gt;12</title>
<path fill="none" stroke="#c0c0c0" stroke-width="2" d="M280.8733,-575.7623C280.7028,-551.201 280.3976,-507.2474 280.1969,-478.3541"/>
<polygon fill="#c0c0c0" stroke="#c0c0c0" stroke-width="2" points="283.6951,-478.065 280.1256,-468.0896 276.6952,-478.1137 283.6951,-478.065"/>
</g>
<!-- 23&#45;&gt;22 -->
<g id="edge33" class="edge">
<title>23&#45;&gt;22</title>
<path fill="none" stroke="#c0c0c0" stroke-width="2" d="M292.6077,-575.8314C297.7978,-567.7079 304.0232,-557.9637 309.7425,-549.0118"/>
<polygon fill="#c0c0c0" stroke="#c0c0c0" stroke-width="2" points="312.8015,-550.7246 315.236,-540.4133 306.9026,-546.9559 312.8015,-550.7246"/>
</g>
<!-- 24 -->
<g id="node25" class="node">
<title>24</title>
<path fill="none" stroke="#56d0d8" stroke-width="2" d="M476,-756C476,-756 398,-756 398,-756 392,-756 386,-750 386,-744 386,-744 386,-732 386,-732 386,-726 392,-720 398,-720 398,-720 476,-720 476,-720 482,-720 488,-726 488,-732 488,-732 488,-744 488,-744 488,-750 482,-756 476,-756"/>
<text text-anchor="middle" x="437" y="-741" font-family="sans" font-size="10.00" fill="#000000">cat</text>
<text text-anchor="middle" x="437" y="-730" font-family="sans" font-size="10.00" fill="#000000">sample: ANT1_S3</text>
</g>
<!-- 24&#45;&gt;13 -->
<g id="edge24" class="edge">
<title>24&#45;&gt;13</title>
<path fill="none" stroke="#c0c0c0" stroke-width="2" d="M437,-719.8314C437,-712.131 437,-702.9743 437,-694.4166"/>
<polygon fill="#c0c0c0" stroke="#c0c0c0" stroke-width="2" points="440.5001,-694.4132 437,-684.4133 433.5001,-694.4133 440.5001,-694.4132"/>
</g>
<!-- 25 -->
<g id="node26" class="node">
<title>25</title>
<path fill="none" stroke="#56d0d8" stroke-width="2" d="M99,-756C99,-756 21,-756 21,-756 15,-756 9,-750 9,-744 9,-744 9,-732 9,-732 9,-726 15,-720 21,-720 21,-720 99,-720 99,-720 105,-720 111,-726 111,-732 111,-732 111,-744 111,-744 111,-750 105,-756 99,-756"/>
<text text-anchor="middle" x="60" y="-741" font-family="sans" font-size="10.00" fill="#000000">cat</text>
<text text-anchor="middle" x="60" y="-730" font-family="sans" font-size="10.00" fill="#000000">sample: BOY6_S9</text>
</g>
<!-- 25&#45;&gt;14 -->
<g id="edge25" class="edge">
<title>25&#45;&gt;14</title>
<path fill="none" stroke="#c0c0c0" stroke-width="2" d="M60,-719.8314C60,-712.131 60,-702.9743 60,-694.4166"/>
<polygon fill="#c0c0c0" stroke="#c0c0c0" stroke-width="2" points="63.5001,-694.4132 60,-684.4133 56.5001,-694.4133 63.5001,-694.4132"/>
</g>
<!-- 26 -->
<g id="node27" class="node">
<title>26</title>
<path fill="none" stroke="#56d0d8" stroke-width="2" d="M286.5,-756C286.5,-756 209.5,-756 209.5,-756 203.5,-756 197.5,-750 197.5,-744 197.5,-744 197.5,-732 197.5,-732 197.5,-726 203.5,-720 209.5,-720 209.5,-720 286.5,-720 286.5,-720 292.5,-720 298.5,-726 298.5,-732 298.5,-732 298.5,-744 298.5,-744 298.5,-750 292.5,-756 286.5,-756"/>
<text text-anchor="middle" x="248" y="-741" font-family="sans" font-size="10.00" fill="#000000">cat</text>
<text text-anchor="middle" x="248" y="-730" font-family="sans" font-size="10.00" fill="#000000">sample: CAT3_S1</text>
</g>
<!-- 26&#45;&gt;15 -->
<g id="edge26" class="edge">
<title>26&#45;&gt;15</title>
<path fill="none" stroke="#c0c0c0" stroke-width="2" d="M248,-719.8314C248,-712.131 248,-702.9743 248,-694.4166"/>
<polygon fill="#c0c0c0" stroke="#c0c0c0" stroke-width="2" points="251.5001,-694.4132 248,-684.4133 244.5001,-694.4133 251.5001,-694.4132"/>
</g>
<!-- 27 -->
<g id="node28" class="node">
<title>27</title>
<path fill="none" stroke="#56d86b" stroke-width="2" d="M353,-252C353,-252 315,-252 315,-252 309,-252 303,-246 303,-240 303,-240 303,-228 303,-228 303,-222 309,-216 315,-216 315,-216 353,-216 353,-216 359,-216 365,-222 365,-228 365,-228 365,-240 365,-240 365,-246 359,-252 353,-252"/>
<text text-anchor="middle" x="334" y="-231.5" font-family="sans" font-size="10.00" fill="#000000">bedgraph</text>
</g>
<!-- 27&#45;&gt;16 -->
<g id="edge27" class="edge">
<title>27&#45;&gt;16</title>
<path fill="none" stroke="#c0c0c0" stroke-width="2" d="M332.4859,-215.8314C331.8442,-208.131 331.0812,-198.9743 330.3681,-190.4166"/>
<polygon fill="#c0c0c0" stroke="#c0c0c0" stroke-width="2" points="333.8529,-190.088 329.5344,-180.4133 326.8771,-190.6694 333.8529,-190.088"/>
</g>
<!-- 28 -->
<g id="node29" class="node">
<title>28</title>
<path fill="none" stroke="#56d86b" stroke-width="2" d="M160,-252C160,-252 122,-252 122,-252 116,-252 110,-246 110,-240 110,-240 110,-228 110,-228 110,-222 116,-216 122,-216 122,-216 160,-216 160,-216 166,-216 172,-222 172,-228 172,-228 172,-240 172,-240 172,-246 166,-252 160,-252"/>
<text text-anchor="middle" x="141" y="-231.5" font-family="sans" font-size="10.00" fill="#000000">bedgraph</text>
</g>
<!-- 28&#45;&gt;17 -->
<g id="edge28" class="edge">
<title>28&#45;&gt;17</title>
<path fill="none" stroke="#c0c0c0" stroke-width="2" d="M142.7664,-215.8314C143.515,-208.131 144.4053,-198.9743 145.2373,-190.4166"/>
<polygon fill="#c0c0c0" stroke="#c0c0c0" stroke-width="2" points="148.7256,-190.7051 146.2098,-180.4133 141.7585,-190.0276 148.7256,-190.7051"/>
</g>
<!-- 29&#45;&gt;27 -->
<g id="edge35" class="edge">
<title>29&#45;&gt;27</title>
<path fill="none" stroke="#c0c0c0" stroke-width="2" d="M336.9906,-287.8314C336.5628,-280.131 336.0541,-270.9743 335.5787,-262.4166"/>
<polygon fill="#c0c0c0" stroke="#c0c0c0" stroke-width="2" points="339.0724,-262.2037 335.023,-252.4133 332.0831,-262.592 339.0724,-262.2037"/>
</g>
<!-- 30&#45;&gt;28 -->
<g id="edge36" class="edge">
<title>30&#45;&gt;28</title>
<path fill="none" stroke="#c0c0c0" stroke-width="2" d="M146.2336,-287.8314C145.485,-280.131 144.5947,-270.9743 143.7627,-262.4166"/>
<polygon fill="#c0c0c0" stroke="#c0c0c0" stroke-width="2" points="147.2415,-262.0276 142.7902,-252.4133 140.2744,-262.7051 147.2415,-262.0276"/>
</g>
</g>
</svg>
